<svg version="1.2" xmlns="http://www.w3.org/2000/svg" viewBox="0 0 663 660" width="128" height="127">
	<defs>
		<radialGradient id="g1" cx="0" cy="0" r="1" gradientUnits="userSpaceOnUse" gradientTransform="matrix(299.999,0,0,299.999,330.068,333.116)">
			<stop offset="0" stop-color="#41291d"/>
			<stop offset="1" stop-color="#793e2e"/>
		</radialGradient>
		<filter x="-50%" y="-50%" width="200%" height="200%" id="f1"> <feGaussianBlur stdDeviation="9.5"/> </filter>
	</defs>
	<style>
		.s0 { fill: url(#g1);stroke: #000000;stroke-linecap: round;stroke-linejoin: round;stroke-width: 1.9 }
		.s1 { fill: #fc75ba;stroke: #000000;stroke-linecap: round;stroke-linejoin: round;stroke-width: 1.7 }
		.s2 { filter: url(#f1);fill: #d1438b }
	</style>
	<g id="layer5">
		<g id="g28383">
			<path id="path28385" fill-rule="evenodd" class="s0" d="m444.5 56.8c36.3 15.1 69.3 37.1 97 64.8 27.8 27.8 49.8 60.8 64.9 97.1 15 36.3 22.7 75.1 22.7 114.4 0 39.3-7.7 78.2-22.7 114.5-15.1 36.2-37.1 69.2-64.9 97-27.7 27.8-60.7 49.8-97 64.8-36.3 15-75.2 22.8-114.4 22.8-39.3 0-78.2-7.8-114.5-22.8-36.3-15-69.2-37-97-64.8-27.8-27.8-49.8-60.8-64.8-97-15.1-36.3-22.8-75.2-22.8-114.5 0-39.3 7.7-78.1 22.8-114.4 15-36.3 37-69.3 64.8-97.1 27.8-27.7 60.7-49.7 97-64.8 36.3-15 75.2-22.7 114.5-22.7 39.2 0 78.1 7.7 114.4 22.7zm-148.5 194c-10.9 4.4-20.7 11-29 19.3-8.3 8.3-14.8 18.1-19.3 28.9-4.5 10.8-6.8 22.4-6.8 34.1 0 11.7 2.3 23.3 6.8 34.1 4.5 10.8 11 20.7 19.3 29 8.3 8.2 18.1 14.8 29 19.3 10.8 4.5 22.4 6.8 34.1 6.8 11.7 0 23.3-2.3 34.1-6.8 10.8-4.5 20.6-11.1 28.9-19.3 8.3-8.3 14.9-18.2 19.3-29 4.5-10.8 6.8-22.4 6.8-34.1 0-11.7-2.3-23.3-6.8-34.1-4.4-10.8-11-20.6-19.3-28.9-8.3-8.3-18.1-14.9-28.9-19.3-10.8-4.5-22.4-6.8-34.1-6.8-11.7 0-23.3 2.3-34.1 6.8z"/>
			<path id="path28387" fill-rule="evenodd" class="s1" d="m357.8 35.5c23.1 1.3 32.4 26.1 50.4 36.9 11 4.4 24.6 0.7 36.7 1.9 16.9-2.8 31.6 6.3 46.9 11.8 17.3 10 35.8 19.4 47.9 35.8 17.8 21.5 40.6 39.4 52.5 65.2 9.5 14 14.7 29.8 17.9 46.4 6.7 14-0.2 28.3 0.7 42.8 2.9 20.3-9.1 38.5-8.7 58.7 7.4 19.5 6.4 40.2 7.2 60.6-3.9 15.4-6.7 31.7-14.2 45.9-8.1 17.6-18.9 34-28.2 50.7-1.2 13.5-7 25-15.1 35.5-17.1 20.2-44 27.7-69.3 32-14.1 0.2-25.9 7.5-37.3 15.1-13.3 12.3-32 12.7-47.1 21.6-18 10.6-39.8 17.2-51.6 35.5-12.8-0.7-25.6-0.7-38.4 0-5.5-9.7-17-12.4-26-18-10.5-9.3-24.2-6.1-37-6.6-9.6 0.1-17.1-9.6-22.9-16.4-13.3-24.9-44.3-26.7-64.7-43-10.3-20-18.8-41.4-34.8-57.9-18.9-9.3-33.7-24.4-46.7-40.7-5.1-12.5-13.7-23.7-18.9-35.9-0.2-13.7-8.9-25.2-21.3-30.6-3.6-24-5.9-48.4-4.6-72.7-2.8-11.5 11.2-15.2 13.3-25.7 12.8-20.4 20.6-43.5 27.8-66.4 2-18.3 13.9-32.6 25.6-45.8 4.9-12.4 22-11.4 26.3-24 3.1-9.5 7.6-17.6 15.9-23.2 17.7-12.4 26.5-33.4 44.9-44.9 10.7 1.4 20.6-2.2 30.4-5.8 15.3-2.7 26.6-12.7 38-22.5 17.2-10.4 36.9-16 56.9-18.8 15.9 0 31.8-0.7 47.5 2.5zm-25.7 193.9c-12.4-1.9-26.1-18.8-37.5-3.6-6.5 8.8-18.7 3.9-26.2 11.7-14.1 2.6-1.6 17.3-6.7 25.4-3.7 12.1-12.2 15-23.9 11.7-19-0.2-15.6 24.2-19.7 36.6 6.4 10.7 0.4 21.9-4.1 31.9-3.7 12.2 9 17.2 17.9 21.4 10.2 5.9 10.3 15.4 7.7 25.8-5.5 12.8 6.4 23.4 15.9 29.9 5.1 19.5 21.4 6.4 33.1 0.1 9.4 0.3 18.1 9.2 24.6 16.3 11.1 0.2 20.9-3.6 30.1-9.5 5 10 12.2 16.5 23.9 15.6 7.7-18.8 24-7.4 38.6-13.6 9-8.5 3.8-22.7 8.7-33.5 4.5-13.9 4.7-26 23.3-26.8 7.6-7.6 7.2-19.9-1.5-26.4-16.9-7.1 2.2-25.5 11.2-30.5 4.9-12.6-10.1-16-10.6-26.7 2.1-12.3-13.7-10.2-16.7-20.8-5.2-10.6-19 0.5-27.2-8.3-13.9-2.8-0.4-28.1-19.3-26.2-8.7-4.5-14-15.2-25-10.7-3.4 9.7-6.3 12-16.6 10.2z"/>
			<g id="g28389">
				<path id="path28391" fill-rule="evenodd" class="s2" d="m173.6 242.3c-0.9 0.7-1.5 1.9-1.5 3.1 0 1.1 0.6 2.3 1.5 3q0.3 0.3 0.6 0.5 0.2 0.2 0.4 0.6 0.1 0.2 0.1 0.5 0 0.2 0 0.5-0.1 0.5-0.1 1v2.1 9.2q0 1.5 0.3 3.1c0 0.5 0.1 1 0.1 1.5 0 0.6-0.1 1.1-0.4 1.5-0.3 0.4-0.7 0.7-1 1q-0.5 0.4-0.7 1-0.3 0.5-0.4 1.1c0 0.3 0.1 0.7 0 1q0 0.4-0.3 0.7-0.2 0.2-0.5 0.4c-0.4 0.3-0.9 0.6-1.2 1q-0.3 0.4-0.5 0.9-0.1 0.5-0.1 1.1c0 0.7-0.1 1.4-0.4 2.1-0.3 0.4-0.6 0.7-1 1-0.4 0.3-0.8 0.6-1.1 1-0.4 0.6-0.6 1.4-1 2.1-0.2 0.3-0.4 0.6-0.6 0.9-0.2 0.4-0.4 0.7-0.4 1.1-0.1 0.3 0 0.7 0 1 0 1-0.3 1.9-0.8 2.7-0.4 0.8-0.9 1.6-1.3 2.4-0.3 0.7-0.6 1.5-1 2.1-0.4 0.6-1 1.1-1.5 1.5-0.6 0.5-1.2 1-1.6 1.6-0.4 0.6-0.6 1.3-1 2-0.3 0.7-0.8 1.3-1 2.1-0.1 0.5-0.1 1-0.1 1.5 0 0.5 0.1 1 0.1 1.5-0.1 1.1-0.5 2.2-0.9 3.2-0.4 0.9-0.9 1.9-1.2 3-0.2 1.2-0.2 2.4-0.1 3.6 0.1 1.2 0.3 2.4 0.1 3.6-0.1 1.2-0.5 2.3-0.7 3.5-0.2 1.2-0.3 2.4-0.3 3.6v7.2c0 1-0.1 2 0 3.1 0.1 1.7 0.8 3.3 1.6 4.7 0.8 1.5 1.8 2.9 2.5 4.5 0.8 1.6 1.3 3.4 2.1 5.1 0.5 1.1 1.1 2.2 2 3.1 0.4 0.3 0.8 0.6 1.1 0.9 0.4 0.3 0.7 0.7 1 1.1 0.3 0.7 0.3 1.4 0.4 2.1 0.1 0.7 0.2 1.4 0.6 2 0.3 0.5 0.9 0.9 1.4 1.2 0.6 0.3 1.1 0.5 1.6 0.9 0.8 0.5 1.4 1.4 2.1 2 0.9 0.8 2.1 1.3 3.1 2.1 0.7 0.6 1.3 1.4 2 2 1.8 1.7 4.3 2.5 6.2 4.1 1.1 1 1.9 2.2 3 3.1 1 0.8 2.1 1.3 3.1 2 1.5 1.2 2.7 2.8 4.1 4.1 1.6 1.5 3.7 2.5 5.1 4.1 0.9 1.1 1.5 2.3 2.1 3.6 0.6 1.2 1.2 2.5 2 3.6 1.2 1.5 3 2.5 4.1 4.1 0.8 1 1.3 2.3 1.7 3.5 0.4 1.2 0.8 2.5 1.4 3.7 0.9 1.7 2.3 3.2 3.1 5.1 0.8 2.2 0.6 4.8 1 7.1 0.4 2.8 1.8 5.4 2 8.2 0.2 1.7 0 3.5 0 5.2v4.1 6.1q0 1 0.1 2.1c0.1 0.6 0.1 1.3-0.1 2-0.1 0.6-0.5 1.1-0.9 1.6-0.4 0.5-0.8 0.9-1.1 1.5-0.5 0.9-0.6 2.1-1 3-0.5 0.9-1.2 1.6-2 2.2-0.7 0.6-1.5 1.2-2.1 1.9-0.5 0.6-0.8 1.3-1.3 1.9q-0.3 0.5-0.8 0.8c-0.3 0.3-0.6 0.4-1 0.4-0.4 0-0.7-0.1-1-0.1q-0.3-0.1-0.6 0-0.2 0-0.5 0.1c-0.2 0.1-0.3 0.3-0.5 0.5-0.1 0.2-0.3 0.4-0.5 0.5q-0.2 0.2-0.5 0.2-0.2 0-0.5-0.1c-0.3-0.1-0.7-0.1-1-0.1q-0.4 0.1-0.7 0.4-0.2 0.3-0.4 0.6c-0.3 0.4-0.6 0.8-1 1.1q-0.3 0.2-0.7 0.2-0.4 0.1-0.8 0c-0.5 0-1-0.2-1.5-0.2-0.8-0.1-1.5 0-2.2 0.2-0.6 0.2-1.3 0.5-1.9 0.8-1 0.4-2 0.9-3.1 1-0.9 0.2-1.7 0.1-2.6 0.1q-1.3-0.1-2.5-0.1h-5.2c-3.7 0-7.5 0.5-11.2 0-1.8-0.2-3.4-0.7-5.1-1-2.1-0.4-4.2-0.6-6.2-1-5.5-1.1-10.8-3.8-14.3-8.2-1.1-1.3-2-2.8-3.1-4.1-1.3-1.5-2.8-2.7-4.1-4.1-1.1-1.3-2-2.7-3.1-4.1-1-1.4-2.1-2.6-3-4.1-0.8-1.3-1.4-2.7-2.1-4.1-1-2-2.2-4-3.1-6.1-0.6-1.7-1.1-3.6-2-5.2-1.1-1.8-2.9-3.3-4.1-5.1-1.3-1.8-2-4-2.6-6.1-0.7-2.1-1.3-4.3-2.5-6.2-1.2-1.8-2.8-3.3-4.1-5.1-3.1-4.2-4.1-9.6-6.2-14.3-2.2-5.1-5.7-9.4-8.2-14.4-1.1-2.3-2-4.7-3-7.1-0.6-1.4-1.3-2.8-2.1-4.1-2.3-3.8-5.6-6.7-8.2-10.3q-1.1-1.5-2-3c-1.7-2.8-3.3-5.6-5.1-8.2-0.9-1.3-1.9-2.6-2.1-4.1-0.1-0.7-0.1-1.4 0-2.1q0-1 0-2v-5.2c0-2.3-0.3-4.7 0-7.1 0.4-3.4 2.3-6.3 4.1-9.2 3.6-5.9 6.8-12 9.2-18.5 1.2-3.1 2.3-6.4 4.1-9.2 1.8-2.6 4.2-4.7 6.2-7.2 3.1-3.8 5.2-8.3 8.2-12.2 1.3-1.8 2.7-3.5 4.1-5.2 2.4-3 4.5-6.3 7.1-9.2 2-2.1 4.2-4 6.2-6.1 3.4-3.8 5.9-8.4 9.2-12.3 1.4-1.7 2.9-3.3 4.1-5.1 1.2-2 2-4.1 3.1-6.2 1.7-3.6 4-6.8 6.1-10.2 2.1-3.4 4-6.9 6.1-10.3 1.4-2 2.8-4.1 4.1-6.1 2.4-3.5 4.6-7 7.2-10.3 3.6-4.3 8-8.2 13.3-10.2 2-0.8 4.2-1.2 6.2-2 1-0.5 2-0.9 3-1.1 1.1-0.1 2.1 0.1 3.1 0 1.4-0.1 2.7-0.8 4.1-1 1.4-0.2 2.7 0 4.1 0 1.4 0 2.8-0.3 4.1 0 1.5 0.3 2.8 1.2 3.8 2.3 1 1.1 1.7 2.5 2.3 3.9 0.4 0.6 0.7 1.3 1.1 2q0.3 0.5 0.6 1c0.2 0.3 0.3 0.7 0.4 1 0.1 0.7-0.1 1.4 0 2.1 0 0.5 0.3 1 0.5 1.5 0.2 0.5 0.4 1 0.5 1.6 0.1 0.6 0 1.3 0 2-0.1 0.7-0.2 1.4 0 2.1 0.2 0.7 0.7 1.3 1 2 0.4 0.8 0.4 1.7 0.4 2.6-0.1 0.8-0.3 1.7-0.4 2.5q0 0.5 0 1.1c0.2 1 0.8 2 1.1 3 0.2 0.9 0.1 1.7 0.1 2.6q-0.1 1.3-0.1 2.6v2c0 0.7 0.1 1.4 0 2-0.1 0.6-0.4 1.1-0.7 1.6-0.3 0.4-0.7 0.8-1.1 1.2-0.9 0.7-1.8 1.4-2.3 2.4-0.4 0.6-0.6 1.4-0.8 2.2q-0.2 0.5-0.5 1-0.3 0.5-0.8 0.9c-0.2 0.1-0.4 0.2-0.6 0.4q-0.2 0.1-0.3 0.2-0.1 0.2-0.1 0.4c0 0.2 0.1 0.3 0.1 0.5q0 0.1 0 0.3 0 0.1-0.1 0.2-0.1 0.1-0.2 0.1-0.2 0-0.3 0c-0.2 0-0.3-0.1-0.5-0.1q-0.2 0-0.3 0.1-0.1 0.1-0.2 0.2-0.2 0.3-0.2 0.6-0.1 0.3-0.1 0.6-0.1 0.3-0.2 0.6-0.2 0.2-0.5 0.3-0.3 0.1-0.6 0.2-0.3 0-0.5 0.1-0.3 0.2-0.5 0.4-0.2 0.2-0.2 0.5-0.1 0.3-0.1 0.6-0.1 0.4-0.2 0.6-0.1 0.1-0.2 0.2-0.2 0.1-0.3 0.1c-0.2 0.1-0.4 0-0.5-0.1q-0.2 0-0.3 0-0.1 0-0.2 0.1-0.1 0.1-0.2 0.3 0 0.1 0.1 0.2c0 0.2 0.1 0.4 0.1 0.6q-0.1 0.1-0.2 0.3-0.1 0.2-0.2 0.3c-0.2 0.1-0.5 0.2-0.7 0.4q-0.2 0.2-0.5 0.5-0.2 0.3-0.5 0.5c-0.3 0.2-0.7 0.3-1.1 0.4q-0.3 0-0.6 0.2-0.2 0.2-0.3 0.4-0.1 0.3-0.1 0.5 0 0.3 0.1 0.6c0 0.8-0.3 1.6-0.9 2.2-0.5 0.6-1.4 0.9-2.2 0.8q-0.3 0-0.5 0-0.3 0-0.5 0c-0.3 0.1-0.5 0.3-0.6 0.5q-0.3 0.2-0.5 0.6c-0.5 0.7-1.4 1.3-2 2-0.5 0.6-0.9 1.3-1 2q-1 1.1-2.1 2.1c-0.3 0.3-0.7 0.6-1 1-0.2 0.2-0.3 0.4-0.4 0.6-0.2 0.2-0.4 0.4-0.6 0.4q-0.3 0.1-0.5 0-0.3 0-0.6 0-0.1 0.1-0.3 0.2-0.1 0.1-0.2 0.3c-0.2 0.2-0.3 0.4-0.5 0.6-0.1 0.1-0.4 0.3-0.5 0.4-0.2 0.2-0.4 0.4-0.5 0.6q-0.1 0.2-0.1 0.5 0.1 0.3 0.1 0.5c0.1 1.1-0.3 2.3-1 3.1z"/>
				<path id="path28393" fill-rule="evenodd" class="s2" d="m496.2 135.8q-4.4-2.9-9.2-5.1c-1.4-0.7-2.8-1.3-4.1-2.1-1.1-0.7-2-1.5-3.1-2-1.6-0.9-3.5-1.3-5.1-2.1-0.7-0.3-1.4-0.7-2.1-1-1.3-0.5-2.7-0.6-4.1-1-1-0.4-2-1-3-1.1-0.7 0-1.4 0.1-2.1 0-0.5 0-1-0.3-1.5-0.5-0.5-0.2-1-0.4-1.6-0.5-0.6-0.1-1.3 0-2 0h-4.1q-1.3 0-2.6-0.1c-0.8 0-1.7-0.1-2.5 0.1-0.8 0.2-1.4 0.6-2.1 1-1.8 1.3-3.4 2.8-5.1 4.1-0.6 0.5-1.2 0.9-1.7 1.4-0.5 0.5-1 1.1-1.4 1.7-0.5 1-0.6 2.1-1 3.1-0.3 0.7-0.7 1.3-1 2-0.5 1-0.6 2.1-1 3.1-0.3 0.7-0.8 1.3-1.1 2.1-0.5 1.3-0.5 2.7-1 4-0.3 0.9-0.8 1.7-1.2 2.5-0.4 0.9-0.8 1.7-0.8 2.7-0.1 0.6 0 1.3 0 2-0.1 0.9-0.5 1.7-0.8 2.5-0.2 0.9-0.3 1.8-0.3 2.6v3.1q0 0.3 0 0.5 0 0.2 0 0.3 0 0.1 0 0.2 0.1 0.1 0.3 0.2 0.1 0 0.2 0c0.2-0.1 0.4-0.2 0.6-0.2q0.1 0 0.3 0.1 0.1 0.1 0.2 0.2 0.2 0.2 0.3 0.5c0.1 0.4 0.1 0.9 0.2 1.3 0.1 0.4 0.3 0.7 0.5 1 0.2 0.3 0.4 0.7 0.5 1 0.1 0.4 0 0.7 0 1.1 0 0.3-0.1 0.6 0 1 0.1 0.3 0.3 0.7 0.5 1q0.4 0.4 0.8 0.7c0.6 0.4 1.3 0.8 1.8 1.4 0.4 0.4 0.6 1 0.9 1.6 0.3 0.5 0.6 1.1 1.1 1.4 0.3 0.2 0.7 0.3 1.1 0.5 0.3 0.1 0.7 0.3 1 0.5 0.2 0.3 0.4 0.7 0.5 1.1 0.1 0.3 0.3 0.7 0.5 1 0.2 0.3 0.6 0.5 1 0.6 0.3 0.2 0.7 0.3 1 0.4 0.7 0.3 1.3 0.9 1.7 1.5 0.5 0.6 0.8 1.2 1.1 1.9 0.3 0.7 0.6 1.4 1 2 0.3 0.7 0.8 1.3 1.4 1.8 0.6 0.5 1.3 0.8 2 1.1 0.7 0.3 1.4 0.5 2.1 0.9 0.8 0.5 1.5 1.3 2.1 2 0.6 0.7 1.3 1.5 2 2.1 1.2 1.2 2.8 2 4.1 3.1 1.8 1.6 3.1 3.7 5.1 5.1 1 0.8 2.1 1.3 3.1 2.1 0.7 0.6 1.3 1.4 1.9 2.1 0.7 0.7 1.3 1.4 2.1 2 0.6 0.3 1.1 0.6 1.7 0.8 0.5 0.3 1.1 0.7 1.4 1.2 0.3 0.5 0.5 1 0.6 1.5 0.1 0.6 0.2 1.1 0.4 1.6 0.5 1.1 1.5 2 2.1 3.1 0.5 0.9 0.7 2 1 3 1.1 4.1 3 8.1 3.1 12.3 0 1.1-0.1 2.1 0 3.1 0.1 2.1 0.9 4.1 1 6.1 0.1 1.4 0 2.8 0 4.1v7.2 21.5 10.3c0 1.3-0.1 2.7 0 4.1 0.2 2.4 1.5 4.7 2.1 7.1 0.3 1.4 0.3 2.9 1 4.1 0.6 1.1 1.5 2 2 3.1 0.5 1 0.5 2.1 1.1 3.1 0.3 0.6 0.8 1.1 1.4 1.6 0.5 0.5 1.1 0.9 1.6 1.4 0.9 0.9 1.5 2 2.1 3.1 0.6 1.1 1.2 2.2 2 3.1 1 1 2.2 1.7 3.4 2.3 1.3 0.6 2.6 1.1 3.8 1.8 1.7 0.9 3.3 2.2 5.1 3.1 1.9 0.8 4.1 1 6.2 1h2q0.5 0 1 0c0.4 0 0.7 0 1.1 0 0.4-0.1 0.8-0.3 1.1-0.5q0.6-0.4 1-0.9c0.6-0.6 1.2-1.3 2-1.7 0.4-0.3 1-0.4 1.5-0.5q0.8-0.3 1.5-0.5l3.1-1c1-0.4 2.1-0.6 3.1-1.1 1.1-0.5 1.9-1.5 3-2 1-0.5 2.1-0.6 3.1-1 1.1-0.6 2-1.5 3.1-2.1 0.8-0.4 1.7-0.6 2.6-0.9 0.9-0.3 1.8-0.6 2.5-1.1 0.8-0.6 1.3-1.5 2.1-2.1 0.5-0.4 1-0.6 1.6-0.9 0.5-0.3 1.1-0.6 1.4-1.1 0.2-0.4 0.4-0.7 0.5-1.1 0.2-0.3 0.3-0.7 0.6-1q0.2-0.2 0.5-0.5 0.3-0.2 0.5-0.5c0.2-0.3 0.2-0.7 0.2-1-0.1-0.4-0.2-0.7-0.2-1.1-0.2-0.8-0.1-1.7 0.2-2.6 0.2-0.8 0.5-1.7 0.8-2.5q1-2.5 2.1-5.1c1.7-4.1 3.7-8.1 5.1-12.3 0.7-2 1.2-4.1 2-6.1 0.6-1.4 1.3-2.8 2.1-4.1 1.6-3 3.4-5.9 4.1-9.2 0.3-1.7 0.4-3.5 1-5.2 0.5-1.4 1.4-2.7 2-4.1 0.4-0.7 0.6-1.4 1.1-2 0.3-0.5 0.8-0.9 1.2-1.4 0.4-0.5 0.8-1.1 0.8-1.7 0-0.3 0-0.7 0-1 0.1-0.6 0.4-1.2 0.8-1.7 0.4-0.5 0.9-0.9 1.3-1.4 0.7-1 1-2.2 1.1-3.4 0.1-1.3 0-2.5-0.1-3.7-0.1-0.7-0.1-1.4 0-2.1 0.1-0.5 0.3-1 0.5-1.5 0.2-0.5 0.4-1 0.5-1.6 0.1-0.6 0-1.3 0-2v-6.2q0-0.5 0.1-1c0-0.3 0-0.7-0.1-1q-0.1-0.4-0.4-0.6-0.2-0.3-0.5-0.5c-0.4-0.3-0.8-0.6-1.1-1-0.3-0.3-0.4-0.6-0.6-1-0.1-0.3-0.3-0.7-0.5-1-0.2-0.4-0.6-0.7-1-1-1.9-1.6-3.9-3-5.1-5.2-0.4-0.6-0.7-1.3-1-2-0.6-1.1-1.5-2-2.1-3.1-0.3-0.7-0.6-1.4-1-2-0.5-0.7-1.2-1.2-1.9-1.7-0.8-0.4-1.5-0.8-2.2-1.4q-0.6-0.5-1-1c-1.6-1.8-3.1-3.9-5.1-5.1-0.8-0.5-1.6-0.9-2.3-1.3-0.8-0.5-1.4-1-1.8-1.8-0.2-0.4-0.3-0.7-0.5-1.1-0.1-0.3-0.3-0.7-0.6-1-0.2-0.2-0.6-0.4-1-0.5-0.3-0.2-0.7-0.3-1-0.5-0.4-0.2-0.7-0.6-1-1-0.3-0.4-0.7-0.8-1.1-1-0.3-0.2-0.7-0.4-1.1-0.4-0.4-0.1-0.8-0.2-1.2-0.3-0.4 0-0.8-0.2-1.1-0.4-0.3-0.2-0.6-0.6-0.7-1 0-0.3 0-0.7 0-1 0-0.4-0.1-0.9-0.3-1.2q-0.4-0.6-0.9-1.1c-0.6-0.6-1.3-1.1-1.8-1.8-0.5-0.6-0.7-1.4-1.1-2-0.6-1.4-1.7-2.5-3-3.1 0-1.1-0.4-2.2-1.1-3.1-0.4-0.6-1-1-1.6-1.5-0.5-0.4-1.1-0.9-1.4-1.6-0.4-0.6-0.6-1.4-1.1-2-0.3-0.4-0.7-0.7-1-1-0.1-0.2-0.3-0.5-0.4-0.6q-0.1-0.2-0.3-0.3-0.1-0.1-0.3-0.2-0.3 0-0.5 0-0.3 0.1-0.5 0-0.2 0-0.3-0.1-0.2-0.2-0.3-0.3c-0.1-0.2-0.3-0.4-0.4-0.6-0.3-0.3-0.7-0.4-1.1-0.5-0.3-0.1-0.7-0.3-1-0.5-0.2-0.2-0.3-0.4-0.5-0.5-0.1-0.2-0.3-0.4-0.5-0.5-0.3-0.2-0.7-0.2-1 0-0.8-0.1-1.6-0.5-2.1-1.1-0.5-0.5-0.8-1.2-1.3-1.8q-0.3-0.5-0.7-0.8c-0.3-0.2-0.7-0.4-1.1-0.4-0.3-0.1-0.7 0-1 0-0.4-0.1-0.7-0.3-0.9-0.6-0.3-0.3-0.5-0.6-0.6-0.9-0.2-0.4-0.4-0.7-0.6-1-0.3-0.3-0.6-0.5-1-0.6-0.3-0.1-0.6 0-1 0-0.3 0.1-0.7 0.1-1 0q-0.3-0.1-0.5-0.4-0.2-0.2-0.3-0.5c-0.1-0.4-0.2-0.8-0.2-1.2-0.2-1-0.6-2.1-1.3-2.9q-0.5-0.6-1.3-0.9c-0.5-0.2-1-0.3-1.5-0.2q-0.3 0-0.5 0-0.3 0.1-0.6 0-0.1-0.1-0.2-0.3-0.2-0.1-0.3-0.3-0.1-0.1-0.2-0.3-0.1-0.1-0.3-0.2c-0.1 0-0.3 0-0.5 0q-0.2 0-0.5 0h-2.1q-0.7 0-1.5 0.1c-0.5 0.1-1 0.1-1.5-0.1-0.5-0.1-0.9-0.5-1-1 0 0-3.1-1-3.1-1z"/>
				<path id="path28395" fill-rule="evenodd" class="s2" d="m396.8 473.7h-23.5-3.1q-1.3 0-2.6 0c-0.8-0.1-1.7-0.1-2.5 0-0.8 0.2-1.5 0.6-2.1 1-0.7 0.4-1.3 0.8-2 1.1-1.9 0.9-4.2 0.9-6.2 0-0.7 0.8-1.7 1.5-2.8 1.8-1 0.4-2.2 0.4-3.3 0.2-0.5 0-1-0.2-1.6-0.3q-0.3 0-0.7 0.1-0.4 0-0.8 0.2c-0.4 0.3-0.6 0.8-1 1.1-0.3 0.2-0.7 0.4-1 0.5-0.4 0.1-0.7 0.3-1 0.5q-0.5 0.3-0.8 0.9-0.3 0.5-0.4 1c-0.3 0.8-0.4 1.6-0.9 2.2-0.6 0.8-1.5 1.3-2 2-0.5 0.7-0.7 1.4-1.1 2.1-0.5 0.8-1.3 1.4-2 2-2.5 2-4.8 4.1-7.2 6.2-3.3 2.9-6.6 5.8-10.2 8.2-1.7 1.1-3.4 2.1-5.1 3-1.8 1-3.5 2-5.2 3.1-1.3 0.8-2.6 1.7-4.1 2.1-0.5 0.1-1 0.1-1.6 0.3-0.5 0.1-1.1 0.3-1.4 0.7-0.4 0.4-0.6 0.8-0.9 1.3q-0.2 0.3-0.5 0.5c-0.2 0.2-0.4 0.2-0.7 0.2-0.2 0-0.3 0-0.5 0q-0.1-0.1-0.3-0.1-0.1 0.1-0.2 0.1-0.1 0.1-0.2 0.2 0 0.2 0 0.3 0 0.3 0.1 0.5 0.1 0.6 0.1 1.1v6.1c0 1.1-0.1 2.1 0 3.1 0.1 1.1 0.5 2.1 1 3.1 0.6 1.1 1.4 2 2.1 3 0.7 1.2 1.3 2.4 2.1 3.6 0.7 1.1 1.7 2.1 3 2.6 0.5 0.2 1 0.3 1.6 0.4 0.5 0.2 1 0.3 1.5 0.6 0.4 0.3 0.7 0.7 1 1 0.3 0.4 0.6 0.8 1 1.1 0.6 0.4 1.4 0.7 2.1 1 2.6 1.2 4.6 3.7 7.1 5.1 1.6 0.9 3.4 1.4 5.1 2.1 1.8 0.6 3.4 1.5 5.2 2 2.3 0.6 4.8 0.6 7.1 1 2.5 0.5 4.8 1.6 7.2 2.1 1.7 0.3 3.5 0.4 5.1 1 1.1 0.4 2.1 1.1 3 1.7 1 0.5 2 1.1 3.2 1.4 1 0.2 2 0.2 3 0.1 1.1-0.1 2.1-0.2 3.1-0.1 1.8 0.1 3.4 0.7 5.1 1 2.1 0.3 4.1 0.1 6.2 0 2 0 4.1 0.1 6.1 0 4.9-0.2 9.6-1.9 14.4-3.1 2.4-0.6 4.8-1.1 7.1-2 3.3-1.3 6.2-3.4 9.3-5.1 3.3-1.9 6.9-3.2 10.2-5.2 4-2.3 7.4-5.5 11.3-8.2 4.2-2.9 9-5.2 13.3-8.1 3.8-2.7 7.2-5.9 11.2-8.2 3.3-2 6.9-3.3 10.3-5.2 3.1-1.7 5.9-3.8 9.2-5.1 2.7-1.1 5.7-1.6 8.2-3.1 2.5-1.4 4.5-3.8 7.2-5.1 1.9-0.9 4.1-1.2 6.1-2 1.4-0.6 2.7-1.5 4.1-2.1 1.3-0.5 2.7-0.7 4.1-1 2.1-0.5 4.1-1.4 6.1-2 3.5-1.1 7.2-1.3 10.3-3.1 1.5-0.9 2.7-2.1 4.1-3.1 1.4-1 2.9-1.8 4.1-3.1 1.2-1.2 2-2.7 3-4.1 1-1.1 2.1-2 3.1-3 3.3-3.5 5-8.1 7.2-12.3 1.9-3.7 4.2-7.2 5.1-11.3 0.5-2 0.5-4.1 1-6.1 0.4-1.4 0.9-2.7 1.1-4.1 0.1-1.4-0.1-2.8 0-4.1 0-1.7 0.4-3.4 0.7-5.1 0.2-1.7 0.3-3.4 0.3-5.2v-11.2q0-1.1 0.1-2.1c0-0.7 0.1-1.4-0.1-2-0.2-0.9-0.8-1.6-1.4-2.2-0.6-0.6-1.2-1.2-1.7-1.9-0.4-0.7-0.6-1.4-0.9-2.1-0.3-0.7-0.6-1.5-1.1-2-0.5-0.5-1-0.8-1.5-1.1-0.6-0.3-1.1-0.6-1.6-1-0.7-0.5-1.2-1.2-1.7-1.9-0.5-0.7-0.9-1.5-1.4-2.2-1.7-2.4-4.3-4.2-7.2-5.1-1.3-0.4-2.7-0.6-4-1-1.4-0.4-2.7-0.9-4.1-1-1.7-0.2-3.5 0-5.2 0h-13.3-6.1c-2.1 0-4.1-0.3-6.2 0-1.4 0.2-2.7 0.7-4.1 1-1.7 0.3-3.5 0.3-5.1 1-1.3 0.6-2.4 1.7-3.3 2.8-0.9 1.1-1.8 2.4-2.8 3.4-1.3 1.1-2.8 2-4.1 3-1.9 1.5-3.4 3.4-5.1 5.2-2.8 2.7-6 5-9.3 7.1-1 0.7-2 1.4-3 2.1-4.2 2.9-7.7 6.6-11.3 10.2l-5.1 5.1c-1 1.1-2.2 2-3.1 3.1-1.1 1.3-1.8 3-3.1 4.1-0.9 0.8-2.1 1.3-3 2-0.9 0.8-1.5 1.7-2.1 2.6-0.6 0.9-1.2 1.9-2 2.6-1 0.8-2.2 1.2-3.1 2-0.8 0.6-1.4 1.4-2.1 2.1-0.7 0.6-1.5 1.2-2 2-0.4 0.6-0.7 1.4-1 2.1-0.2 0.7-0.5 1.4-1.1 2-0.3 0.4-0.7 0.7-1 1-0.1 0.2-0.3 0.4-0.4 0.6-0.2 0.2-0.4 0.4-0.6 0.5q-0.3 0-0.5 0-0.3-0.1-0.5 0c-0.3 0-0.5 0.2-0.7 0.4q-0.2 0.2-0.3 0.6-0.2 0.3-0.4 0.6c-0.2 0.2-0.4 0.4-0.7 0.4q-0.2 0-0.5 0-0.3-0.1-0.5 0-0.2 0.1-0.3 0.2-0.1 0.1-0.3 0.3c-0.1 0.2-0.2 0.4-0.4 0.5q-0.3 0.2-0.6 0.3-0.3 0-0.6 0-0.3 0.1-0.6 0.3-0.1 0-0.2 0.2-0.1 0.1-0.1 0.3c0 0.1 0.1 0.3 0.1 0.5q0 0.1 0 0.2 0 0.2-0.1 0.3-0.1 0.1-0.2 0.1-0.1 0-0.3 0c-0.1 0-0.3-0.1-0.5-0.1q-0.2 0-0.4 0.1-0.1 0.1-0.3 0.2c-0.1 0.2-0.3 0.4-0.4 0.6-0.1 0.3-0.2 0.5-0.3 0.7-0.2 0.2-0.4 0.4-0.6 0.4q-0.3 0.1-0.6 0-0.2 0-0.5 0c-0.2 0.1-0.4 0.3-0.6 0.5-0.1 0.2-0.2 0.4-0.4 0.6-0.1 0.2-0.2 0.5-0.4 0.7q-0.1 0.1-0.3 0.2-0.1 0.1-0.3 0.1c-0.2 0-0.4-0.1-0.5-0.1q-0.2 0-0.3 0-0.1 0-0.2 0.1-0.1 0.1-0.2 0.2 0 0.1 0 0.3c0.1 0.2 0.1 0.3 0.2 0.5 0 0.3-0.1 0.6-0.3 0.8-0.2 0.3-0.5 0.4-0.8 0.4-0.3 0-0.6-0.1-0.8-0.4-0.1-0.2-0.2-0.5-0.2-0.8 0 0-3.1 2-3.1 2z"/>
			</g>
		</g>
	</g>
</svg>
